<?xml version="1.0" encoding="UTF-8" standalone="no"?>
<!DOCTYPE svg PUBLIC "-//W3C//DTD SVG 1.1//EN" "http://www.w3.org/Graphics/SVG/1.1/DTD/svg11.dtd">
<svg width="100%" height="100%" viewBox="0 0 118 145" version="1.1" xmlns="http://www.w3.org/2000/svg" xmlns:xlink="http://www.w3.org/1999/xlink" xml:space="preserve" xmlns:serif="http://www.serif.com/" style="fill-rule:evenodd;clip-rule:evenodd;stroke-linejoin:round;stroke-miterlimit:2;">
    <g transform="matrix(1,0,0,1,-342.442697,-216.566773)">
        <g id="path2453" transform="matrix(2.834646,0,0,2.834646,0,0)">
            <path d="M154.066,76.4C152.991,76.4 151.952,76.728 151.071,77.348C150.173,77.98 149.952,79.241 150.582,80.142C150.956,80.678 151.568,80.998 152.22,80.998C152.631,80.998 153.031,80.871 153.367,80.635C153.56,80.499 153.831,80.413 154.067,80.413C154.303,80.413 154.572,80.499 154.765,80.635C154.895,80.727 154.999,80.839 155.054,80.937C155.108,81.031 155.129,81.14 155.129,81.201C155.129,81.289 155.061,81.506 154.91,81.679C154.743,81.867 154.452,82.066 154.078,82.203C153.308,82.485 152.173,82.495 150.755,82.553C148.829,82.631 146.841,82.906 144.908,83.567C142.968,84.229 141.098,85.282 139.577,86.823C137.972,88.45 136.865,90.522 136.406,92.764C136.038,94.559 136.101,96.417 136.566,98.18C135.577,99.233 134.694,100.398 133.961,101.687C131.108,106.705 130.985,112.41 130.723,117.504C130.639,119.148 130.498,120.581 130,121.622C129.756,122.133 129.422,122.555 129.067,122.822C128.725,123.079 128.31,123.213 128,123.205C127.745,123.199 127.426,123.096 127.138,122.908C126.842,122.714 126.549,122.418 126.306,122.046C125.812,121.292 125.509,120.217 125.286,118.97C124.983,117.275 124.824,115.554 124.806,113.832C124.794,112.74 123.895,111.848 122.807,111.848C122.799,111.848 122.791,111.848 122.783,111.849C121.687,111.861 120.796,112.775 120.806,113.875C120.826,115.82 121.007,117.764 121.35,119.679C121.605,121.103 121.972,122.734 122.963,124.248C123.462,125.01 124.113,125.722 124.95,126.27C125.794,126.823 126.798,127.186 127.895,127.215C129.246,127.25 130.478,126.777 131.465,126.035C132.44,125.302 133.131,124.351 133.605,123.359C134.544,121.394 134.632,119.396 134.718,117.711C134.982,112.569 135.224,107.563 137.433,103.678C138.165,102.39 139.119,101.229 140.228,100.195C142.242,98.318 144.775,96.868 147.466,95.884C151.456,94.426 155.795,93.89 160.019,94.336C161.109,94.452 162.102,93.647 162.218,92.553C162.225,92.483 162.229,92.413 162.229,92.342C162.229,91.32 161.45,90.452 160.436,90.347C155.6,89.835 150.664,90.445 146.095,92.114C144.04,92.866 142.02,93.861 140.171,95.118C140.172,94.597 140.22,94.078 140.323,93.572C140.623,92.108 141.367,90.707 142.416,89.645C143.417,88.631 144.743,87.861 146.197,87.365C147.656,86.866 149.26,86.628 150.915,86.561C152.144,86.511 153.73,86.602 155.449,85.973C156.32,85.655 157.194,85.142 157.905,84.335C158.631,83.511 159.13,82.433 159.128,81.192C159.127,80.38 158.907,79.62 158.531,78.955C158.156,78.294 157.644,77.757 157.062,77.348C156.181,76.728 155.142,76.4 154.067,76.4L154.066,76.4Z" style="fill-rule:nonzero;"/>
        </g>
    </g>
</svg>
