<?xml version="1.0" encoding="UTF-8" standalone="no"?>
<!DOCTYPE svg PUBLIC "-//W3C//DTD SVG 1.1//EN" "http://www.w3.org/Graphics/SVG/1.1/DTD/svg11.dtd">
<svg width="100%" height="100%" viewBox="0 0 180 149" version="1.1" xmlns="http://www.w3.org/2000/svg" xmlns:xlink="http://www.w3.org/1999/xlink" xml:space="preserve" xmlns:serif="http://www.serif.com/" style="fill-rule:evenodd;clip-rule:evenodd;stroke-linejoin:round;stroke-miterlimit:2;">
    <g transform="matrix(1,0,0,1,-79.819758,-7.170058)">
        <g id="path2287" transform="matrix(2.834646,0,0,2.834646,0,0)">
            <path d="M59.661,2.529C58.868,7.118 58.286,11.742 57.913,16.384C56.575,16.447 55.271,16.586 54.008,16.79L48.884,6.814L49.616,17.821C48.626,18.133 47.678,18.494 46.775,18.897L41.808,14.399L43.241,20.868C40.041,23.085 37.763,26.126 37.474,29.684C34.361,30.021 31.254,30.421 28.159,30.9C31.29,31.351 34.431,31.727 37.579,32.042C37.942,34.179 39.026,36.112 40.58,37.771L34.575,46.868L44.136,40.63C45.42,41.391 46.864,42.087 48.061,42.55L46.702,48.686L52.125,43.775L52.093,43.757C54.22,44.2 56.255,44.423 58.242,44.549C58.601,48.011 59.068,51.462 59.661,54.892C59.687,54.752 59.71,54.611 59.736,54.47C59.762,54.615 59.785,54.761 59.812,54.906C60.405,51.475 60.873,48.023 61.232,44.559C63.37,44.477 65.425,44.208 67.364,43.775L72.771,48.672L71.419,42.563C72.868,41.981 74.181,41.334 75.36,40.631L84.898,46.854L78.904,37.775C80.46,36.111 81.543,34.171 81.901,32.027C85.046,31.712 88.186,31.336 91.315,30.886C88.218,30.407 85.11,30.007 81.995,29.671C81.695,26.123 79.421,23.089 76.227,20.878L77.665,14.385L72.677,18.903C71.78,18.503 70.838,18.146 69.856,17.835L70.589,6.799L65.452,16.801C64.166,16.622 62.781,16.467 61.56,16.396C61.187,11.755 60.605,7.131 59.812,2.544C59.785,2.687 59.764,2.83 59.738,2.973C59.711,2.826 59.689,2.677 59.661,2.53L59.661,2.529ZM61.856,21.022C66.093,21.324 69.855,22.475 72.556,24.078C75.121,25.6 76.62,27.391 77.096,29.193C71.853,28.813 66.568,28.537 62.061,28.48C62.057,25.992 61.989,23.505 61.856,21.022L61.856,21.022ZM57.616,21.036C57.61,21.162 57.608,21.289 57.602,21.415C57.482,23.769 57.417,26.126 57.413,28.483C55.595,28.506 53.778,28.562 51.962,28.632C48.763,28.752 45.567,28.939 42.378,29.207C42.853,27.405 44.352,25.614 46.917,24.092C49.618,22.489 53.38,21.338 57.616,21.035L57.616,21.036ZM76.829,32.484C76.17,34.024 74.756,35.529 72.556,36.834C69.811,38.463 65.971,39.628 61.649,39.907C61.803,37.542 61.928,35.334 61.998,33.137C63.684,33.117 65.37,33.072 67.056,33.014C70.317,32.908 73.576,32.735 76.829,32.484L76.829,32.484ZM42.644,32.498C47.823,32.845 53.02,33.089 57.476,33.14C57.557,35.456 57.667,37.713 57.826,39.918C57.65,39.908 57.48,39.887 57.306,39.874C53.198,39.537 49.551,38.411 46.917,36.848C44.717,35.542 43.303,34.038 42.644,32.498L42.644,32.498Z" style="fill-rule:nonzero;"/>
        </g>
    </g>
</svg>
