<svg xmlns="http://www.w3.org/2000/svg" viewBox="0 0 512 512" style="height: 512px; width: 512px;"><g class="" transform="translate(0,0)" style=""><path d="M256 48C145.2 48 48 145.2 48 256s97.2 208 208 208 208-97.2 208-208S366.8 48 256 48zm0 368c-88.4 0-160-71.6-160-160s71.6-160 160-160 160 71.6 160 160-71.6 160-160 160zm0-48c17.7 0 32-14.3 32-32s-14.3-32-32-32-32 14.3-32 32 14.3 32 32 32z" fill="currentColor" fill-opacity="1"></path><text x="256" y="280" font-family="Arial, sans-serif" font-size="120" font-weight="bold" fill="currentColor" text-anchor="middle">%</text></g></svg>