<?xml version="1.0" encoding="UTF-8"?>
<svg width="1200" height="675" viewBox="0 0 1200 675" xmlns="http://www.w3.org/2000/svg" role="img" aria-label="VTT main page hero banner">
  <defs>
    <!-- Subtle paper-like noise (very low opacity) -->
    <filter id="noise" x="-10%" y="-10%" width="120%" height="120%">
      <feTurbulence type="fractalNoise" baseFrequency="0.85" numOctaves="2" stitchTiles="stitch" />
      <feColorMatrix type="matrix" values="
        0 0 0 0 0
        0 0 0 0 0
        0 0 0 0 0
        0 0 0 .08 0" />
    </filter>

    <!-- Soft vignette -->
    <radialGradient id="vignette" cx="50%" cy="45%" r="70%">
      <stop offset="0%" stop-color="#000000" stop-opacity="0" />
      <stop offset="100%" stop-color="#000000" stop-opacity="0.30" />
    </radialGradient>

    <!-- Background gradient -->
    <linearGradient id="bg" x1="0" y1="0" x2="1" y2="1">
      <stop offset="0%" stop-color="#0b1020"/>
      <stop offset="55%" stop-color="#111a2e"/>
      <stop offset="100%" stop-color="#07101d"/>
    </linearGradient>

    <!-- Accent gradient -->
    <linearGradient id="accent" x1="0" y1="0" x2="1" y2="0">
      <stop offset="0%" stop-color="#5eead4" stop-opacity="0.9"/>
      <stop offset="100%" stop-color="#60a5fa" stop-opacity="0.9"/>
    </linearGradient>

    <!-- Grid pattern -->
    <pattern id="grid" width="48" height="48" patternUnits="userSpaceOnUse">
      <path d="M48 0H0V48" fill="none" stroke="#9fb2d6" stroke-opacity="0.10" stroke-width="1"/>
      <path d="M24 0V48M0 24H48" fill="none" stroke="#9fb2d6" stroke-opacity="0.05" stroke-width="1"/>
    </pattern>

    <!-- Glow -->
    <filter id="glow" x="-50%" y="-50%" width="200%" height="200%">
      <feGaussianBlur stdDeviation="10" result="b"/>
      <feColorMatrix in="b" type="matrix" values="
        1 0 0 0 0
        0 1 0 0 0
        0 0 1 0 0
        0 0 0 0.55 0" result="g"/>
      <feMerge>
        <feMergeNode in="g"/>
        <feMergeNode in="SourceGraphic"/>
      </feMerge>
    </filter>

    <!-- Card shadow -->
    <filter id="shadow" x="-20%" y="-20%" width="140%" height="140%">
      <feDropShadow dx="0" dy="10" stdDeviation="12" flood-color="#000000" flood-opacity="0.35"/>
    </filter>
  </defs>

  <!-- Background -->
  <rect width="1200" height="675" fill="url(#bg)"/>

  <!-- Grid overlay -->
  <rect width="1200" height="675" fill="url(#grid)"/>

  <!-- Decorative diagonal accents -->
  <path d="M-50 520 C 250 420, 450 700, 820 560 C 1030 480, 1120 350, 1280 320 L1280 800 L-50 800 Z"
        fill="url(#accent)" opacity="0.10"/>
  <path d="M-80 140 C 190 210, 390 0, 680 90 C 900 160, 1030 250, 1280 210"
        fill="none" stroke="url(#accent)" stroke-width="6" opacity="0.20"/>

  <!-- Central emblem (d20-like) -->
  <g transform="translate(920 195)" filter="url(#glow)" opacity="0.95">
    <!-- Outer ring -->
    <circle cx="0" cy="0" r="115" fill="none" stroke="#c7d2fe" stroke-opacity="0.35" stroke-width="2"/>
    <circle cx="0" cy="0" r="95" fill="none" stroke="#5eead4" stroke-opacity="0.35" stroke-width="2"/>

    <!-- Simplified d20 -->
    <g>
      <polygon points="0,-90 78,-25 48,70 -48,70 -78,-25"
               fill="#0b1226" stroke="#bcd3ff" stroke-opacity="0.55" stroke-width="2"/>
      <path d="M0,-90 L0,70 M-78,-25 L78,-25 M-48,70 L0,-20 L48,70"
            fill="none" stroke="#5eead4" stroke-opacity="0.45" stroke-width="2"/>
      <circle cx="0" cy="-35" r="4" fill="#60a5fa" opacity="0.9"/>
      <circle cx="-28" cy="10" r="4" fill="#5eead4" opacity="0.9"/>
      <circle cx="28" cy="10" r="4" fill="#a78bfa" opacity="0.9"/>
    </g>
  </g>

  <!-- Hero card -->
  <g transform="translate(90 120)" filter="url(#shadow)">
    <rect x="0" y="0" width="720" height="435" rx="26" fill="#060a14" fill-opacity="0.70" stroke="#c7d2fe" stroke-opacity="0.20"/>
    <rect x="24" y="24" width="672" height="387" rx="20" fill="#0b1020" fill-opacity="0.55" stroke="#5eead4" stroke-opacity="0.18"/>

    <!-- Header line -->
    <rect x="56" y="62" width="220" height="10" rx="5" fill="url(#accent)" opacity="0.85"/>

    <!-- Title -->
    <text x="56" y="140" font-family="ui-sans-serif, system-ui, -apple-system, Segoe UI, Roboto, Arial"
          font-size="54" font-weight="700" fill="#eef2ff" letter-spacing="0.5">
      Your VTT
    </text>

    <!-- Subtitle -->
    <text x="56" y="190" font-family="ui-sans-serif, system-ui, -apple-system, Segoe UI, Roboto, Arial"
          font-size="22" font-weight="500" fill="#c7d2fe" fill-opacity="0.90">
      Lightweight, SVG-first tabletop interface
    </text>

    <!-- Body text -->
    <text x="56" y="238" font-family="ui-sans-serif, system-ui, -apple-system, Segoe UI, Roboto, Arial"
          font-size="18" fill="#dbeafe" fill-opacity="0.80">
      <tspan x="56" dy="0">Test asset: grid, tokens, and UI widgets</tspan>
      <tspan x="56" dy="28">Optimized for small footprint and fast rendering</tspan>
    </text>

    <!-- Buttons -->
    <g transform="translate(56 295)">
      <rect x="0" y="0" width="190" height="54" rx="14" fill="url(#accent)" opacity="0.95"/>
      <text x="95" y="35" text-anchor="middle"
            font-family="ui-sans-serif, system-ui, -apple-system, Segoe UI, Roboto, Arial"
            font-size="18" font-weight="700" fill="#08101d">
        Start Session
      </text>

      <rect x="210" y="0" width="210" height="54" rx="14" fill="none" stroke="#c7d2fe" stroke-opacity="0.55" stroke-width="2"/>
      <text x="315" y="35" text-anchor="middle"
            font-family="ui-sans-serif, system-ui, -apple-system, Segoe UI, Roboto, Arial"
            font-size="18" font-weight="700" fill="#eef2ff" fill-opacity="0.92">
        Load Campaign
      </text>
    </g>

    <!-- Mini token row -->
    <g transform="translate(56 375)" opacity="0.95">
      <text x="0" y="0" font-family="ui-sans-serif, system-ui, -apple-system, Segoe UI, Roboto, Arial"
            font-size="14" font-weight="600" fill="#c7d2fe" fill-opacity="0.85">
        Recent tokens
      </text>

      <!-- Tokens -->
      <g transform="translate(0 18)">
        <g transform="translate(0 0)">
          <circle cx="22" cy="22" r="22" fill="#0b1226" stroke="#5eead4" stroke-opacity="0.55"/>
          <path d="M22 8 L32 28 L12 28 Z" fill="#5eead4" fill-opacity="0.35"/>
        </g>
        <g transform="translate(54 0)">
          <circle cx="22" cy="22" r="22" fill="#0b1226" stroke="#60a5fa" stroke-opacity="0.55"/>
          <path d="M12 18 H32 V28 H12 Z" fill="#60a5fa" fill-opacity="0.35"/>
        </g>
        <g transform="translate(108 0)">
          <circle cx="22" cy="22" r="22" fill="#0b1226" stroke="#a78bfa" stroke-opacity="0.55"/>
          <path d="M22 12 a10 10 0 1 0 0.01 0" fill="#a78bfa" fill-opacity="0.30"/>
        </g>
        <g transform="translate(162 0)">
          <circle cx="22" cy="22" r="22" fill="#0b1226" stroke="#fbbf24" stroke-opacity="0.55"/>
          <path d="M22 12 L30 32 L14 32 Z" fill="#fbbf24" fill-opacity="0.28"/>
        </g>
      </g>
    </g>
  </g>

  <!-- Vignette + noise -->
  <rect width="1200" height="675" fill="url(#vignette)"/>
  <rect width="1200" height="675" filter="url(#noise)" opacity="0.35"/>
</svg>