<?xml version="1.0" encoding="UTF-8" standalone="no"?>
<!DOCTYPE svg PUBLIC "-//W3C//DTD SVG 1.1//EN" "http://www.w3.org/Graphics/SVG/1.1/DTD/svg11.dtd">
<svg width="100%" height="100%" viewBox="0 0 81 143" version="1.1" xmlns="http://www.w3.org/2000/svg" xmlns:xlink="http://www.w3.org/1999/xlink" xml:space="preserve" xmlns:serif="http://www.serif.com/" style="fill-rule:evenodd;clip-rule:evenodd;stroke-linejoin:round;stroke-miterlimit:2;">
    <g transform="matrix(1,0,0,1,-134.487934,-641.161323)">
        <g id="path2656" transform="matrix(2.834646,0,0,2.834646,0,0)">
            <path d="M49.614,226.191C48.926,226.161 48.232,226.314 47.622,226.644C47.614,226.648 47.606,226.65 47.598,226.654C47.594,226.656 47.592,226.658 47.588,226.66C47.56,226.676 47.535,226.696 47.514,226.72C47.514,226.72 47.512,226.721 47.512,226.722C47.463,226.778 47.439,226.852 47.445,226.927C47.445,226.929 47.445,226.931 47.445,226.933C47.447,226.945 47.449,226.956 47.451,226.967C47.453,226.975 47.455,226.985 47.459,226.993C47.467,227.017 47.479,227.04 47.494,227.061C47.496,227.063 47.496,227.065 47.498,227.067C47.516,227.093 47.538,227.115 47.564,227.133C47.564,227.133 47.566,227.135 47.566,227.135C47.619,227.171 47.683,227.188 47.747,227.182L47.748,227.182C47.758,227.181 47.768,227.18 47.779,227.176C47.781,227.175 47.783,227.175 47.785,227.175C48.508,227.005 49.31,227.142 49.936,227.544C50.562,227.945 51.021,228.616 51.171,229.346C51.27,229.83 51.244,230.348 51.143,230.854C51.042,231.362 50.869,231.863 50.686,232.371C49.898,234.571 48.993,236.754 48.382,239.044C47.771,241.336 47.46,243.767 47.901,246.13C48.45,249.07 50.188,251.76 52.639,253.462C54.665,254.869 57.148,255.577 59.606,255.488C59.632,257.017 59.684,258.546 59.762,260.074C56.807,260.227 53.868,260.726 51.03,261.568C53.917,262.511 56.929,263.065 59.961,263.22C60.078,264.795 60.217,266.37 60.39,267.94C57.221,268.051 54.067,268.563 51.026,269.466C54.176,270.495 57.475,271.058 60.787,271.146C61.032,272.961 61.312,274.771 61.631,276.574C61.982,274.773 62.288,272.964 62.557,271.148C65.886,271.064 69.203,270.501 72.369,269.466C69.324,268.562 66.166,268.048 62.993,267.938C63.184,266.368 63.335,264.793 63.465,263.216C66.489,263.06 69.493,262.509 72.373,261.568C69.548,260.73 66.625,260.233 63.683,260.077C63.768,258.55 63.824,257.023 63.852,255.494C66.243,255.538 68.642,254.83 70.612,253.462C73.063,251.76 74.801,249.07 75.35,246.13C75.791,243.767 75.481,241.336 74.87,239.044C74.259,236.754 73.358,234.571 72.57,232.371C72.387,231.863 72.213,231.362 72.112,230.854C72.011,230.348 71.981,229.83 72.081,229.346C72.231,228.616 72.693,227.945 73.319,227.544C73.939,227.146 74.733,227.009 75.452,227.172C75.578,227.211 75.714,227.154 75.776,227.038C75.842,226.915 75.808,226.763 75.695,226.681C75.687,226.675 75.677,226.669 75.668,226.663L75.666,226.661C75.658,226.657 75.648,226.653 75.64,226.649C74.656,226.115 73.446,226.042 72.405,226.454C71.355,226.87 70.52,227.764 70.171,228.841C69.958,229.498 69.926,230.19 69.991,230.855C70.057,231.519 70.218,232.16 70.382,232.783C70.929,234.856 71.584,236.886 71.936,238.963C72.288,241.038 72.327,243.195 71.663,245.155C71.06,246.935 69.871,248.517 68.332,249.59C67.02,250.505 65.451,251.047 63.856,251.154C63.733,244.039 62.992,236.935 61.632,229.952C60.39,236.954 59.715,244.055 59.603,251.166C57.937,251.094 56.289,250.545 54.92,249.59C53.381,248.517 52.196,246.935 51.593,245.155C50.929,243.195 50.963,241.038 51.316,238.963C51.668,236.886 52.327,234.856 52.874,232.783C53.038,232.16 53.195,231.519 53.26,230.855C53.326,230.19 53.298,229.498 53.085,228.841C52.736,227.764 51.897,226.87 50.846,226.454C50.453,226.298 50.035,226.212 49.615,226.193L49.614,226.191Z" style="fill-rule:nonzero;"/>
        </g>
    </g>
</svg>
