<?xml version="1.0" encoding="UTF-8" standalone="no"?>
<!DOCTYPE svg PUBLIC "-//W3C//DTD SVG 1.1//EN" "http://www.w3.org/Graphics/SVG/1.1/DTD/svg11.dtd">
<svg width="100%" height="100%" viewBox="0 0 120 141" version="1.1" xmlns="http://www.w3.org/2000/svg" xmlns:xlink="http://www.w3.org/1999/xlink" xml:space="preserve" xmlns:serif="http://www.serif.com/" style="fill-rule:evenodd;clip-rule:evenodd;stroke-linejoin:round;stroke-miterlimit:2;">
    <g transform="matrix(1,0,0,1,-115.303038,-429.852372)">
        <g id="path2797" transform="matrix(2.834646,0,0,2.834646,0,0)">
            <path d="M40.953,151.643C40.818,151.651 40.711,151.759 40.703,151.894C40.582,153.871 40.87,155.87 41.539,157.733C42.179,159.515 43.135,161.143 44.024,162.769C44.911,164.393 45.724,166.056 46.484,167.746L53.018,182.278C52.507,182.292 51.998,182.258 51.506,182.147C50.094,181.828 48.822,180.884 48.104,179.623L48.103,179.622C48.099,179.614 48.093,179.606 48.087,179.598L48.085,179.596C48.079,179.588 48.073,179.58 48.067,179.573L48.066,179.572C48.06,179.566 48.052,179.558 48.044,179.552C48.044,179.551 48.042,179.551 48.042,179.551C48.034,179.545 48.026,179.539 48.017,179.533C47.999,179.521 47.98,179.513 47.961,179.506C47.959,179.505 47.955,179.504 47.953,179.502C47.933,179.496 47.912,179.492 47.891,179.49C47.881,179.489 47.869,179.489 47.859,179.49C47.849,179.49 47.839,179.492 47.83,179.494C47.829,179.494 47.828,179.494 47.828,179.494C47.827,179.494 47.826,179.494 47.824,179.495C47.814,179.497 47.806,179.499 47.796,179.503C47.788,179.505 47.78,179.509 47.773,179.511C47.767,179.513 47.761,179.517 47.755,179.519C47.751,179.521 47.747,179.523 47.741,179.527C47.739,179.529 47.735,179.531 47.733,179.533C47.727,179.537 47.721,179.541 47.715,179.545L47.713,179.547C47.705,179.553 47.697,179.561 47.689,179.568C47.689,179.568 47.675,179.582 47.669,179.588C47.669,179.588 47.669,179.59 47.668,179.59C47.662,179.598 47.656,179.606 47.65,179.614C47.65,179.614 47.65,179.616 47.649,179.616C47.643,179.624 47.639,179.632 47.635,179.64C47.635,179.641 47.635,179.642 47.634,179.644C47.622,179.67 47.614,179.697 47.611,179.724C47.61,179.726 47.61,179.73 47.61,179.732C47.398,180.466 47.376,181.254 47.555,181.997C47.738,182.757 48.126,183.464 48.668,184.027C49.393,184.78 50.344,185.235 51.3,185.547C52.41,185.909 53.574,186.093 54.74,186.107L61.488,201.116C61.494,201.13 61.5,201.142 61.506,201.154C61.508,201.158 61.512,201.162 61.514,201.166C61.518,201.17 61.52,201.176 61.524,201.18C61.526,201.184 61.528,201.186 61.532,201.19C61.536,201.194 61.54,201.2 61.546,201.204C61.55,201.208 61.552,201.21 61.556,201.214C61.56,201.218 61.564,201.22 61.568,201.224C61.57,201.225 61.57,201.226 61.572,201.228C61.578,201.234 61.586,201.238 61.593,201.244C61.603,201.25 61.613,201.254 61.622,201.26C61.623,201.261 61.624,201.262 61.626,201.262C61.627,201.263 61.628,201.263 61.63,201.263C61.638,201.267 61.648,201.271 61.657,201.273L61.658,201.273C61.659,201.274 61.66,201.274 61.66,201.274C61.668,201.276 61.678,201.28 61.687,201.282C61.695,201.284 61.701,201.284 61.708,201.286C61.712,201.287 61.714,201.287 61.718,201.287C61.73,201.288 61.74,201.289 61.751,201.288L61.753,201.288C61.763,201.288 61.771,201.286 61.781,201.284C61.802,201.28 61.822,201.274 61.841,201.266C61.842,201.266 61.843,201.266 61.845,201.265C61.846,201.265 61.846,201.265 61.846,201.264C61.856,201.26 61.868,201.254 61.878,201.248C61.886,201.244 61.892,201.238 61.9,201.234L61.901,201.233C61.902,201.233 61.903,201.231 61.905,201.231C61.921,201.219 61.934,201.206 61.946,201.191C61.947,201.189 61.948,201.189 61.95,201.187C61.956,201.179 61.96,201.173 61.966,201.165C61.967,201.163 61.968,201.163 61.97,201.161C61.974,201.153 61.978,201.147 61.982,201.138C61.983,201.136 61.984,201.134 61.984,201.132C61.985,201.132 61.985,201.13 61.985,201.13L69.964,183.391C72.11,183.687 74.187,184.502 75.947,185.769C75.949,185.77 75.951,185.771 75.953,185.773C75.961,185.779 75.969,185.783 75.976,185.787C75.986,185.793 75.997,185.797 76.008,185.801C76.018,185.805 76.028,185.809 76.038,185.811C76.044,185.812 76.048,185.813 76.054,185.815C76.06,185.816 76.064,185.817 76.07,185.819C76.08,185.821 76.091,185.821 76.102,185.821C76.102,185.821 76.104,185.821 76.104,185.821C76.104,185.821 76.106,185.821 76.106,185.821C76.126,185.821 76.146,185.819 76.166,185.813C76.168,185.813 76.17,185.811 76.174,185.811C76.182,185.809 76.188,185.807 76.195,185.805C76.195,185.805 76.197,185.805 76.197,185.804C76.205,185.8 76.213,185.798 76.22,185.794C76.221,185.794 76.222,185.794 76.224,185.793C76.226,185.791 76.23,185.791 76.232,185.789C76.238,185.785 76.246,185.781 76.252,185.777C76.26,185.771 76.268,185.765 76.277,185.759C76.285,185.753 76.293,185.745 76.301,185.738C76.307,185.732 76.313,185.724 76.317,185.717L76.321,185.713C76.321,185.712 76.323,185.711 76.323,185.709C76.324,185.707 76.325,185.707 76.327,185.705C76.331,185.697 76.337,185.691 76.341,185.682C76.374,185.624 76.384,185.555 76.368,185.489C75.965,183.932 75.143,182.489 74.009,181.351C73.321,180.662 72.519,180.09 71.65,179.655L77.004,167.746C77.764,166.056 78.576,164.393 79.464,162.769C80.353,161.143 81.309,159.514 81.948,157.733C82.617,155.87 82.901,153.871 82.78,151.894C82.772,151.746 82.646,151.634 82.499,151.643C82.391,151.651 82.298,151.723 82.264,151.826C81.713,152.954 81.188,154.097 80.698,155.252C80.286,156.222 79.899,157.192 79.401,158.09C78.32,160.038 76.696,161.684 75.457,163.639C74.742,164.766 74.182,165.96 73.539,167.088C72.896,168.216 72.159,169.292 71.188,170.097C70.31,170.824 69.243,171.325 68.126,171.594C67.008,171.863 65.838,171.908 64.685,171.786C63.185,171.627 61.713,171.189 60.264,170.685C58.493,170.067 56.709,169.332 54.796,169.079C53.897,168.96 53.019,168.947 52.227,168.69C51.561,168.473 50.946,168.08 50.419,167.597C49.891,167.113 49.444,166.539 49.048,165.923C48.255,164.693 47.667,163.302 46.849,162.017C45.97,160.636 44.872,159.445 44.096,158.086C43.588,157.197 43.207,156.225 42.799,155.252C42.31,154.086 41.787,152.936 41.226,151.803C41.186,151.71 41.098,151.648 40.998,151.643C40.988,151.642 40.977,151.642 40.967,151.643L40.953,151.643ZM55.353,174.477C55.594,174.483 55.834,174.499 56.072,174.536C57.666,174.789 59.172,175.555 60.798,176.053C63.111,176.763 65.594,176.811 67.961,176.313L66.763,178.693C66.591,178.701 66.418,178.703 66.246,178.718C65.033,178.819 63.827,179.078 62.668,179.407C61.029,179.873 59.443,180.472 57.857,181.048L54.631,174.486C54.872,174.478 55.113,174.472 55.353,174.478L55.353,174.477ZM64.213,183.761L61.673,188.81L59.864,185.129C60.702,184.846 61.531,184.544 62.36,184.279C62.971,184.083 63.59,183.91 64.213,183.761Z" style="fill-rule:nonzero;"/>
        </g>
    </g>
</svg>
