<?xml version="1.0" encoding="UTF-8" standalone="no"?>
<!DOCTYPE svg PUBLIC "-//W3C//DTD SVG 1.1//EN" "http://www.w3.org/Graphics/SVG/1.1/DTD/svg11.dtd">
<svg width="100%" height="100%" viewBox="0 0 118 140" version="1.1" xmlns="http://www.w3.org/2000/svg" xmlns:xlink="http://www.w3.org/1999/xlink" xml:space="preserve" xmlns:serif="http://www.serif.com/" style="fill-rule:evenodd;clip-rule:evenodd;stroke-linejoin:round;stroke-miterlimit:2;">
    <g transform="matrix(1,0,0,1,-333.368277,-423.611405)">
        <g id="path2700" transform="matrix(2.834646,0,0,2.834646,0,0)">
            <path d="M131.177,149.441C130.072,149.441 129.177,150.34 129.177,151.448L129.177,157.423L119.605,157.423C118.501,157.423 117.605,158.321 117.605,159.43C117.604,160.539 118.5,161.437 119.605,161.437L129.177,161.437L129.177,196.701C129.177,197.81 130.072,198.708 131.177,198.709C132.282,198.708 133.177,197.81 133.176,196.701L133.176,175.618C133.224,174.125 133.604,172.529 134.341,171.477C134.96,170.618 135.82,169.919 136.77,169.506C137.354,169.252 137.857,169.192 138.117,169.255C138.316,169.303 138.56,169.488 138.66,169.666C138.761,169.845 138.76,170.06 138.727,170.348C138.065,176.049 137.495,181.781 136.899,187.496L141.301,181.312C143.09,178.8 144.886,176.293 146.686,173.789C147.381,172.823 147.984,172.066 148.572,171.688C148.857,171.506 149.144,171.409 149.362,171.387C149.565,171.366 149.752,171.419 149.826,171.464L149.83,171.464C149.899,171.507 150.017,171.633 150.088,171.801C150.164,171.981 150.21,172.246 150.194,172.546C150.16,173.161 149.849,173.955 149.373,174.875C147.749,178.015 145.548,180.947 143.276,183.942C142.624,184.801 141.893,185.746 141.288,186.897C140.678,188.057 140.206,189.428 140.223,190.953C140.235,192.061 140.514,193.156 141.058,194.142C141.602,195.13 142.39,195.972 143.37,196.564C145.124,197.625 147.159,197.725 148.951,197.247C151.525,196.56 153.364,194.85 154.872,193.351C155.696,192.532 156.558,191.632 157.32,190.557C158.087,189.477 158.746,188.218 159.055,186.771C159.277,185.736 159.329,184.553 158.933,183.354C158.735,182.752 158.428,182.169 157.985,181.646C157.54,181.121 156.973,180.677 156.293,180.387C155.153,179.902 153.9,179.921 152.775,180.438C151.649,180.956 150.813,181.901 150.435,183.084C150.098,184.139 150.676,185.269 151.728,185.608C152.781,185.946 153.907,185.363 154.243,184.307C154.265,184.239 154.374,184.117 154.439,184.087C154.503,184.057 154.666,184.055 154.732,184.083C154.784,184.105 154.869,184.161 154.939,184.244C155.011,184.329 155.087,184.46 155.138,184.616C155.242,184.932 155.258,185.404 155.146,185.93C154.984,186.687 154.6,187.478 154.064,188.234C153.525,188.994 152.829,189.732 152.057,190.499C150.665,191.883 149.297,193.005 147.925,193.371C147.03,193.61 146.065,193.504 145.437,193.124C145.084,192.911 144.767,192.582 144.558,192.204C144.349,191.823 144.228,191.36 144.223,190.907C144.215,190.272 144.434,189.521 144.828,188.771C145.228,188.011 145.809,187.232 146.461,186.372C148.735,183.374 151.091,180.268 152.924,176.723C153.47,175.669 154.097,174.376 154.185,172.77C154.23,171.959 154.131,171.091 153.776,170.246C153.416,169.39 152.816,168.604 151.944,168.06C151.002,167.472 149.95,167.294 148.964,167.393C147.992,167.491 147.138,167.848 146.417,168.311C144.993,169.226 144.149,170.463 143.446,171.442C143.113,171.904 142.781,172.367 142.449,172.829L142.613,171.283C142.922,170.069 142.763,168.8 142.145,167.699C141.478,166.513 140.371,165.674 139.052,165.355C137.573,164.998 136.238,165.363 135.181,165.822C134.463,166.134 133.794,166.534 133.177,167.002L133.177,161.437L143.645,161.437C144.75,161.437 145.645,160.538 145.645,159.43C145.645,158.322 144.749,157.424 143.645,157.424L133.177,157.424L133.177,151.448C133.178,150.34 132.282,149.441 131.178,149.441L131.177,149.441Z" style="fill-rule:nonzero;"/>
        </g>
    </g>
</svg>
