<?xml version="1.0" encoding="UTF-8" standalone="no"?>
<!DOCTYPE svg PUBLIC "-//W3C//DTD SVG 1.1//EN" "http://www.w3.org/Graphics/SVG/1.1/DTD/svg11.dtd">
<svg width="100%" height="100%" viewBox="0 0 174 81" version="1.1" xmlns="http://www.w3.org/2000/svg" xmlns:xlink="http://www.w3.org/1999/xlink" xml:space="preserve" xmlns:serif="http://www.serif.com/" style="fill-rule:evenodd;clip-rule:evenodd;stroke-linejoin:round;stroke-miterlimit:2;">
    <g transform="matrix(1,0,0,1,-86.800314,-250.538129)">
        <g id="path2839" transform="matrix(2.834646,0,0,2.834646,0,0)">
            <path d="M60.522,88.394C53.68,88.594 46.913,91.186 41.654,95.546C37.115,99.31 32.977,103.407 30.621,108.058C33.182,105.997 35.853,103.873 38.615,101.931C39.465,102.956 40.375,103.931 41.344,104.844L40.843,110.051L44.586,107.52C44.65,107.567 44.713,107.616 44.778,107.662C45.741,108.347 46.748,108.976 47.788,109.539L47.985,113.8L50.257,110.712C51.443,111.194 52.667,111.578 53.921,111.838L54.434,115.757L56.427,112.191C57.379,112.268 58.336,112.287 59.292,112.245L60.782,116.786L62.352,111.921C62.38,111.917 62.408,111.913 62.436,111.909C63.448,111.739 64.451,111.507 65.438,111.221L67.462,115.426L68.475,110.122C69.084,109.856 69.685,109.571 70.27,109.255L72.687,112.075L72.975,107.535C73.978,106.787 74.915,105.957 75.806,105.077L79.002,107.961L79.002,101.594C79.27,101.282 79.534,100.968 79.8,100.655C80.269,100.951 80.744,101.24 81.238,101.503C82.93,102.408 84.886,103.05 86.83,102.726C88.201,102.497 89.479,101.783 90.396,100.735C91.313,99.687 91.854,98.32 91.903,96.927C91.951,95.533 91.603,94.056 90.665,93.027C89.709,91.98 88.437,91.2 87.246,90.789C87.24,90.787 87.232,90.785 87.226,90.785C87.197,90.779 87.166,90.779 87.136,90.785C87.116,90.789 87.097,90.795 87.079,90.805C87.067,90.811 87.055,90.817 87.043,90.825C87.031,90.831 87.022,90.837 87.011,90.845C87.003,90.853 86.995,90.859 86.989,90.868C86.975,90.882 86.963,90.898 86.953,90.916C86.941,90.934 86.932,90.951 86.925,90.971L86.925,90.975C86.924,90.979 86.923,90.983 86.921,90.987C86.919,91.003 86.917,91.018 86.917,91.034C86.916,91.05 86.916,91.065 86.917,91.08C86.919,91.088 86.919,91.096 86.921,91.104C86.921,91.106 86.921,91.11 86.921,91.112C86.925,91.126 86.931,91.141 86.937,91.155C86.941,91.165 86.947,91.173 86.953,91.183C86.959,91.195 86.967,91.207 86.976,91.218C86.984,91.228 86.992,91.236 87,91.245C87.833,92.032 88.492,93.001 88.918,94.066C89.29,94.999 89.473,96.027 89.214,96.951C89.086,97.411 88.847,97.843 88.512,98.166C88.178,98.488 87.739,98.706 87.289,98.75C86.771,98.8 86.222,98.627 85.707,98.377C84.161,97.627 82.925,96.306 81.528,95.156C79.028,93.097 76.073,91.685 73.05,90.602C69.041,89.167 64.793,88.271 60.521,88.396L60.522,88.394ZM56.184,93.49L66.574,93.49C66.574,96.674 64.249,99.254 61.38,99.254C58.51,99.254 56.184,96.674 56.184,93.49ZM52.563,95.041C53.082,100.2 56.772,104.203 61.254,104.203C65.644,104.203 69.27,100.359 69.904,95.352C72.706,96.385 75.395,97.811 77.913,99.433C78.214,99.627 78.516,99.825 78.817,100.022C75.24,103.063 70.975,105.286 66.437,106.467C62.178,107.575 57.696,107.769 53.342,107.131C50.866,106.768 48.425,106.137 46.101,105.207C43.703,104.246 41.434,102.964 39.367,101.411C43.58,98.521 47.998,96.105 52.563,95.041Z" style="fill-rule:nonzero;"/>
        </g>
    </g>
</svg>
