<?xml version="1.0" encoding="UTF-8" standalone="no"?>
<!DOCTYPE svg PUBLIC "-//W3C//DTD SVG 1.1//EN" "http://www.w3.org/Graphics/SVG/1.1/DTD/svg11.dtd">
<svg width="100%" height="100%" viewBox="0 0 144 80" version="1.1" xmlns="http://www.w3.org/2000/svg" xmlns:xlink="http://www.w3.org/1999/xlink" xml:space="preserve" xmlns:serif="http://www.serif.com/" style="fill-rule:evenodd;clip-rule:evenodd;stroke-linejoin:round;stroke-miterlimit:2;">
    <g transform="matrix(1,0,0,1,-324.84331,-671.530564)">
        <g id="path2884" transform="matrix(2.834646,0,0,2.834646,0,0)">
            <path d="M139.984,236.901C136.873,236.901 133.644,237.359 130.654,238.708C128.471,239.692 126.372,241.187 124.955,243.367C124.246,244.459 123.725,245.703 123.499,247.039C123.271,248.379 123.345,249.785 123.791,251.122C124.537,253.358 125.831,254.731 126.209,255.884C126.563,256.961 126.406,258.286 125.811,259.25C125.215,260.214 124.102,260.946 122.983,261.107C121.864,261.269 120.591,260.881 119.749,260.124C118.907,259.367 118.384,258.138 118.421,257.004C118.422,256.983 118.422,256.962 118.422,256.941C118.422,255.913 117.598,255.059 116.574,255.025C116.553,255.025 116.532,255.024 116.511,255.024C115.487,255.024 114.635,255.852 114.602,256.879C114.526,259.194 115.48,261.435 117.199,262.981C118.918,264.526 121.241,265.23 123.526,264.901C125.81,264.572 127.84,263.24 129.056,261.272C130.272,259.304 130.56,256.884 129.837,254.685C129.1,252.439 127.802,251.06 127.416,249.904C127.189,249.222 127.139,248.44 127.267,247.682C127.397,246.919 127.705,246.155 128.154,245.464C129.055,244.078 130.533,242.964 132.22,242.203C134.559,241.148 137.251,240.738 139.984,240.738C142.717,240.738 145.405,241.148 147.744,242.203C149.431,242.964 150.909,244.078 151.81,245.464C152.259,246.155 152.571,246.919 152.7,247.682C152.829,248.44 152.779,249.222 152.552,249.904C152.166,251.06 150.864,252.439 150.127,254.685C149.404,256.884 149.692,259.304 150.908,261.272C152.124,263.24 154.157,264.572 156.442,264.901C158.726,265.23 161.05,264.526 162.769,262.981C164.488,261.435 165.438,259.194 165.362,256.879C165.329,255.852 164.477,255.024 163.453,255.024C163.432,255.024 163.411,255.025 163.39,255.025C162.344,255.062 161.512,255.955 161.546,257.004C161.584,258.138 161.061,259.367 160.219,260.124C159.377,260.881 158.104,261.269 156.985,261.107C155.866,260.946 154.749,260.214 154.153,259.25C153.558,258.286 153.401,256.961 153.755,255.884C154.133,254.731 155.427,253.358 156.172,251.122C156.619,249.785 156.693,248.379 156.465,247.039C156.239,245.703 155.718,244.459 155.009,243.367C153.592,241.187 151.493,239.692 149.31,238.708C146.32,237.359 143.095,236.901 139.984,236.901L139.984,236.901Z" style="fill-rule:nonzero;"/>
        </g>
    </g>
</svg>
