<?xml version="1.0" encoding="UTF-8" standalone="no"?>
<!DOCTYPE svg PUBLIC "-//W3C//DTD SVG 1.1//EN" "http://www.w3.org/Graphics/SVG/1.1/DTD/svg11.dtd">
<svg width="100%" height="100%" viewBox="0 0 122 117" version="1.1" xmlns="http://www.w3.org/2000/svg" xmlns:xlink="http://www.w3.org/1999/xlink" xml:space="preserve" xmlns:serif="http://www.serif.com/" style="fill-rule:evenodd;clip-rule:evenodd;stroke-linejoin:round;stroke-miterlimit:2;">
    <g transform="matrix(1,0,0,1,-336.710268,-24.049292)">
        <g id="path2280" transform="matrix(2.834646,0,0,2.834646,0,0)">
            <path d="M152.942,8.484C139.272,8.496 125.989,8.511 121.729,8.512L118.784,12.52C121.154,12.518 123.782,12.521 125.908,12.52L125.964,33.745L123.707,37.223L123.712,37.227C123.658,37.311 123.604,37.392 123.552,37.478C123.105,38.22 122.775,38.927 122.577,39.661C122.478,40.028 122.397,40.392 122.429,40.906C122.455,41.308 122.593,41.976 123.139,42.51L129.972,49.669C129.995,37.06 129.947,23.843 129.917,12.521L142.43,12.521L142.509,44.246L139.716,47.582C142.94,47.584 146.376,47.58 149.339,47.582C148.437,46.502 147.536,45.326 146.634,44.246L146.558,12.525C149.008,12.526 150.985,12.521 153.401,12.521C153.746,12.554 153.971,12.614 154.048,12.659C154.094,12.686 154.146,12.744 154.164,12.781C154.182,12.816 154.192,12.883 154.188,12.909C154.184,12.94 154.153,13.05 154.063,13.195C153.97,13.346 153.811,13.541 153.59,13.772C153.144,14.237 152.395,14.837 151.774,15.884C150.986,17.214 150.787,18.792 151.219,20.277C151.652,21.762 152.669,22.985 154.048,23.679C155.426,24.373 157.008,24.461 158.453,23.922C159.898,23.382 161.04,22.278 161.631,20.849C162.054,19.825 161.57,18.651 160.549,18.227C159.53,17.803 158.361,18.287 157.937,19.309C157.788,19.67 157.424,20.024 157.059,20.16C156.693,20.296 156.188,20.268 155.839,20.092C155.491,19.917 155.168,19.527 155.058,19.152C154.949,18.777 155.012,18.274 155.211,17.938C155.385,17.645 155.842,17.212 156.473,16.554C156.789,16.223 157.144,15.827 157.461,15.316C157.78,14.799 158.055,14.173 158.152,13.431C158.263,12.578 158.117,11.734 157.738,10.978C157.359,10.222 156.779,9.611 156.063,9.191C155.383,8.793 154.718,8.632 154.11,8.556C153.723,8.498 153.298,8.493 152.942,8.485L152.942,8.484Z" style="fill-rule:nonzero;"/>
        </g>
    </g>
</svg>
